<svg width="20" height="21" viewBox="0 0 20 21" fill="none" xmlns="http://www.w3.org/2000/svg">
<path fill-rule="evenodd" clip-rule="evenodd" d="M8.75006 2.12109C7.78356 2.12109 7.00006 2.9046 7.00006 3.87109V5.12109H3.50006H3.25006C2.83585 5.12109 2.50006 5.45688 2.50006 5.87109C2.50006 6.28531 2.83585 6.62109 3.25006 6.62109H3.50006V15.3711C3.50006 17.4422 5.17899 19.1211 7.25006 19.1211H12.7501C14.8211 19.1211 16.5001 17.4422 16.5001 15.3711V6.62109H16.7501C17.1643 6.62109 17.5001 6.28531 17.5001 5.87109C17.5001 5.45688 17.1643 5.12109 16.7501 5.12109L16.5001 5.12109H13.0001V3.87109C13.0001 2.9046 12.2166 2.12109 11.2501 2.12109H8.75006ZM11.5001 5.12109V3.87109C11.5001 3.73302 11.3881 3.62109 11.2501 3.62109H8.75006C8.61199 3.62109 8.50006 3.73302 8.50006 3.87109V5.12109H11.5001ZM15.0001 6.62109H13.0001H7.00006H5.00006V15.3711C5.00006 16.6137 6.00742 17.6211 7.25006 17.6211H12.7501C13.9927 17.6211 15.0001 16.6137 15.0001 15.3711V6.62109ZM9.00006 10.3711C9.00006 9.95688 8.66427 9.62109 8.25006 9.62109C7.83585 9.62109 7.50006 9.95688 7.50006 10.3711V13.8711C7.50006 14.2853 7.83585 14.6211 8.25006 14.6211C8.66427 14.6211 9.00006 14.2853 9.00006 13.8711V10.3711ZM12.5001 10.3711C12.5001 9.95688 12.1643 9.62109 11.7501 9.62109C11.3358 9.62109 11.0001 9.95688 11.0001 10.3711V13.8711C11.0001 14.2853 11.3358 14.6211 11.7501 14.6211C12.1643 14.6211 12.5001 14.2853 12.5001 13.8711V10.3711Z" fill="#F54052"/>
</svg>
